<?xml version="1.0" standalone="no"?>
<!DOCTYPE svg PUBLIC "-//W3C//DTD SVG 20010904//EN"
 "http://www.w3.org/TR/2001/REC-SVG-20010904/DTD/svg10.dtd">
<svg version="1.0" xmlns="http://www.w3.org/2000/svg"
 width="1024.000000pt" height="1024.000000pt" viewBox="0 0 1024.000000 1024.000000"
 preserveAspectRatio="xMidYMid meet">
<metadata>
Created by potrace 1.11, written by Peter Selinger 2001-2013
</metadata>
<g transform="translate(0.000000,1024.000000) scale(0.100000,-0.100000)"
fill="#000000" stroke="none">
<path d="M0 5120 l0 -5120 5120 0 5120 0 0 5120 0 5120 -5120 0 -5120 0 0
-5120z m1760 245 l0 -2635 3595 0 3595 0 0 -240 0 -240 -3830 0 -3830 0 0
2875 0 2875 235 0 235 0 0 -2635z m6676 2121 l34 -34 0 -862 0 -862 -34 -34
c-29 -29 -41 -34 -82 -34 l-48 0 -242 242 -243 241 -63 -60 c-35 -33 -575
-570 -1202 -1194 -626 -624 -1149 -1138 -1163 -1143 -13 -4 -41 -5 -61 -1 -32
6 -96 65 -485 453 l-447 447 -778 -778 -777 -777 -360 360 -360 360 1105 1105
c837 837 1113 1108 1138 1114 19 6 45 6 65 0 23 -6 154 -131 479 -456 l448
-448 870 870 870 870 -239 240 c-154 154 -242 250 -246 268 -12 45 3 94 36
121 l31 26 860 0 860 0 34 -34z"/>
</g>
</svg>
