<?xml version="1.0" encoding="iso-8859-1"?>
<!-- Generator: Adobe Illustrator 18.0.0, SVG Export Plug-In . SVG Version: 6.00 Build 0)  -->
<!DOCTYPE svg PUBLIC "-//W3C//DTD SVG 1.1//EN" "http://www.w3.org/Graphics/SVG/1.1/DTD/svg11.dtd">
<svg xmlns="http://www.w3.org/2000/svg" xmlns:xlink="http://www.w3.org/1999/xlink" version="1.1" id="Capa_1" x="0px" y="0px" viewBox="0 0 311.345 311.345" style="enable-background:new 0 0 311.345 311.345;" xml:space="preserve" width="512px" height="512px">
<g>
	<path d="M155.673,170.938c20.912,0,70.078-25.167,70.078-85.47C225.75,38.265,219.378,0,155.673,0   C91.967,0,85.595,38.265,85.595,85.469C85.595,145.771,134.76,170.938,155.673,170.938z" fill="#0069c0"/>
	<path d="M290.706,265.156c-3.713-23.089-11.358-52.832-26.691-63.402c-10.461-7.213-46.973-26.721-62.564-35.051l-0.307-0.164   c-1.782-0.952-3.96-0.762-5.551,0.487c-8.171,6.416-17.123,10.74-26.606,12.852c-1.675,0.373-3.05,1.564-3.658,3.168l-9.656,25.453   l-9.656-25.453c-0.608-1.604-1.983-2.795-3.659-3.168c-9.482-2.112-18.434-6.436-26.605-12.852c-1.59-1.249-3.768-1.44-5.551-0.487   c-15.417,8.238-52.4,28.158-62.825,35.184c-17.651,11.89-25.369,54.927-26.737,63.433c-0.135,0.843-0.057,1.707,0.228,2.512   c0.632,1.783,16.831,43.677,134.806,43.677s134.174-41.894,134.806-43.677C290.763,266.863,290.841,265.999,290.706,265.156z    M211.137,239.881c-0.968,0-1.915-0.149-2.83-0.444l-32.197,24.126c-0.297,4.868-4.353,8.738-9.295,8.738   c-4.99,0-9.078-3.948-9.3-8.887l-21.622-16.724c-2.067,0.756-4.375,0.748-6.404-0.002l-19.97,15.268c0,0.042,0,0.084,0,0.126   c0,5.133-4.177,9.31-9.311,9.31c-5.135,0-9.312-4.177-9.312-9.31c0-5.136,4.177-9.312,9.312-9.312c0.875,0,1.732,0.121,2.563,0.358   l20.634-15.775c0.307-4.858,4.358-8.716,9.294-8.716c4.936,0,8.987,3.862,9.291,8.724l21.768,16.837   c2.018-0.71,4.261-0.688,6.255,0.048l31.813-23.838c0.088-5.06,4.23-9.15,9.311-9.15c5.134,0,9.312,4.178,9.312,9.313   C220.449,235.704,216.272,239.881,211.137,239.881z" fill="#0069c0"/>
</g>
<g>
</g>
<g>
</g>
<g>
</g>
<g>
</g>
<g>
</g>
<g>
</g>
<g>
</g>
<g>
</g>
<g>
</g>
<g>
</g>
<g>
</g>
<g>
</g>
<g>
</g>
<g>
</g>
<g>
</g>
</svg>
